<?xml version="1.0" encoding="utf-8"?>
<!-- Generator: Adobe Illustrator 18.1.1, SVG Export Plug-In . SVG Version: 6.00 Build 0)  -->
<svg version="1.1" id="Layer_1" xmlns="http://www.w3.org/2000/svg" xmlns:xlink="http://www.w3.org/1999/xlink" x="0px" y="0px"
	 viewBox="28.7 338.6 556 115" enable-background="new 28.7 338.6 556 115" xml:space="preserve">
<linearGradient id="SVGID_1_" gradientUnits="userSpaceOnUse" x1="51.8" y1="642.25" x2="246.425" y2="642.25" gradientTransform="matrix(0.5885 0 0 -0.5885 0 774.0865)">
	<stop  offset="0" style="stop-color:#536DFE"/>
	<stop  offset="0.7408" style="stop-color:#43CEFF"/>
</linearGradient>
<path fill="url(#SVGID_1_)" d="M143.1,389l-21.4-37.1c-2.5-4.4-7.3-7.2-12.4-7.2H87.8H66.3c-5.1,0-9.8,2.7-12.4,7.1l-21.5,37
	c-2.6,4.4-2.6,9.9,0,14.4l10.7,18.5c0,0.1,0.1,0.1,0.1,0.2l15.4,25.8h50.7c5.1,0,9.9-2.8,12.4-7.2l21.4-37.1
	C145.6,398.9,145.6,393.4,143.1,389z M39.7,393l21.5-37c1.1-1.8,3.1-3,5.2-3h14.3l-33.7,58.4l-7.2-12.4
	C38.6,397.2,38.6,394.9,39.7,393z M101.4,381.2l8.7,15l-24.7,43.1H67.7L101.4,381.2z M135.9,399.1l-21.4,37.2c-1.1,1.8-3.1,3-5.2,3
	H95l23.5-41c0.2-0.4,0.4-0.8,0.5-1.2c0,0,0,0,0-0.1c0-0.1,0-0.1,0-0.2c0-0.1,0-0.1,0-0.1s0-0.1,0-0.2c0-0.1,0-0.1,0-0.1s0-0.1,0-0.2
	s0-0.1,0-0.1c0-0.1,0-0.1,0-0.2v-0.1c0-0.1,0-0.1,0-0.2v-0.1c0-0.1,0-0.1,0-0.1c0-0.1,0-0.1,0-0.1s0-0.1-0.1-0.1c0-0.1,0-0.1,0-0.1
	s-0.1-0.1-0.1-0.2v-0.1c-0.1-0.2-0.2-0.5-0.4-0.8L105,370.8c-0.2-0.3-0.4-0.6-0.6-0.9c-0.8-0.8-1.8-1.2-2.9-1.2l0,0l0,0
	c-0.2,0-0.5,0-0.7,0.1c-0.1,0-0.1,0-0.2,0.1c-0.9,0.2-1.8,0.7-2.4,1.5c0,0,0,0,0,0.1l-0.1,0.1c-0.1,0.1-0.2,0.2-0.2,0.4l-37.3,64.4
	l-8.8-15.4L90.2,353h19.1c2.1,0,4.1,1.1,5.2,3l21.4,37.1C136.9,395,136.9,397.3,135.9,399.1z"/>
<g>
	<g>
		<path fill="#999CAB" d="M220.4,367v58.3h-2c-0.4,0-0.6-0.1-0.9-0.2c-0.2-0.1-0.5-0.4-0.7-0.6L179,373.9c0.1,0.8,0.1,1.6,0.1,2.4
			v49.1h-3.7V367h2.1c0.4,0,0.7,0.1,0.9,0.1c0.2,0.1,0.4,0.3,0.7,0.6l37.8,50.4c-0.1-0.8-0.1-1.6-0.1-2.4V367L220.4,367L220.4,367z"
			/>
		<path fill="#999CAB" d="M248.6,383.6c2.9,0,5.6,0.5,7.9,1.5c2.3,1,4.3,2.4,5.9,4.2c1.6,1.8,2.8,4.1,3.6,6.6
			c0.8,2.6,1.2,5.5,1.2,8.7s-0.4,6.1-1.2,8.7s-2.1,4.8-3.6,6.6c-1.6,1.8-3.5,3.2-5.9,4.2c-2.3,1-4.9,1.5-7.9,1.5
			c-2.9,0-5.6-0.5-7.9-1.5c-2.3-1-4.3-2.4-5.9-4.2c-1.6-1.8-2.8-4.1-3.6-6.6c-0.8-2.6-1.2-5.5-1.2-8.7s0.4-6.1,1.2-8.7
			s2.1-4.8,3.6-6.6c1.6-1.8,3.6-3.2,5.9-4.2C243,384.2,245.7,383.6,248.6,383.6z M248.6,422.8c2.5,0,4.6-0.4,6.4-1.2
			c1.8-0.8,3.4-2.1,4.6-3.6c1.2-1.6,2.1-3.5,2.8-5.6c0.6-2.2,0.9-4.7,0.9-7.4c0-2.7-0.3-5.2-0.9-7.4c-0.6-2.2-1.5-4.1-2.8-5.7
			s-2.8-2.8-4.6-3.6c-1.8-0.8-3.9-1.3-6.4-1.3c-2.5,0-4.6,0.4-6.4,1.3s-3.4,2.1-4.6,3.6c-1.2,1.6-2.1,3.5-2.8,5.7
			c-0.6,2.2-0.9,4.7-0.9,7.4c0,2.8,0.3,5.2,0.9,7.4c0.6,2.2,1.5,4.1,2.8,5.6c1.2,1.6,2.8,2.8,4.6,3.6
			C244,422.4,246.2,422.8,248.6,422.8z"/>
		<path fill="#999CAB" d="M330,384.3l-13.7,41h-2.9c-0.5,0-0.8-0.3-0.9-0.9l-11.2-33.3c-0.1-0.4-0.2-0.8-0.4-1.2
			c-0.1-0.4-0.2-0.8-0.3-1.2c-0.1,0.8-0.4,1.6-0.6,2.5l-11.4,33.3c-0.2,0.6-0.5,0.9-1,0.9h-2.8l-13.7-41h2.9c0.4,0,0.7,0.1,0.9,0.3
			s0.4,0.4,0.5,0.7l10.4,32.3c0.2,0.6,0.3,1.2,0.5,1.8c0.1,0.6,0.2,1.2,0.4,1.8c0.2-0.6,0.4-1.2,0.5-1.8c0.2-0.6,0.4-1.2,0.6-1.8
			l10.9-32.6c0.2-0.6,0.6-0.9,1.2-0.9h1.6c0.6,0,1,0.3,1.2,0.9l10.9,32.6c0.2,0.6,0.4,1.2,0.5,1.8c0.2,0.6,0.3,1.2,0.5,1.7
			c0.1-0.6,0.2-1.2,0.4-1.7c0.1-0.6,0.3-1.2,0.5-1.8l10.4-32.3c0.1-0.3,0.3-0.5,0.5-0.7s0.5-0.3,0.9-0.3H330L330,384.3z"/>
		<path fill="#999CAB" d="M366.4,374.1c-0.2,0.5-0.6,0.7-1.1,0.7c-0.4,0-0.8-0.2-1.4-0.8c-0.6-0.5-1.4-1.1-2.3-1.7
			c-0.9-0.6-2.2-1.2-3.6-1.7c-1.4-0.5-3.2-0.8-5.4-0.8s-4,0.3-5.6,0.9c-1.6,0.6-2.9,1.4-4.1,2.5c-1.1,1.1-1.9,2.2-2.5,3.6
			c-0.6,1.4-0.8,2.8-0.8,4.4c0,2,0.4,3.6,1.2,4.9s1.9,2.4,3.3,3.3s2.9,1.6,4.6,2.3c1.8,0.6,3.5,1.2,5.4,1.8c1.8,0.6,3.6,1.3,5.4,2
			c1.8,0.7,3.3,1.6,4.6,2.8c1.4,1.1,2.5,2.5,3.3,4.1c0.8,1.6,1.2,3.6,1.2,6c0,2.5-0.4,4.8-1.2,6.9c-0.8,2.2-2.1,4-3.6,5.6
			c-1.6,1.6-3.5,2.8-5.8,3.8c-2.3,0.9-4.9,1.4-7.9,1.4c-3.8,0-7.2-0.7-9.9-2.1s-5.2-3.2-7.3-5.6l1.2-1.8c0.4-0.4,0.7-0.6,1.2-0.6
			c0.2,0,0.6,0.2,0.9,0.5c0.4,0.4,0.8,0.7,1.4,1.2c0.5,0.5,1.2,1,2,1.6c0.8,0.6,1.6,1.1,2.6,1.6c1,0.5,2.2,0.9,3.5,1.2
			c1.3,0.4,2.8,0.5,4.5,0.5c2.3,0,4.4-0.4,6.2-1.1s3.4-1.6,4.6-2.9c1.2-1.2,2.2-2.6,2.9-4.3c0.6-1.6,1-3.4,1-5.4
			c0-2.1-0.4-3.8-1.2-5.1c-0.8-1.4-1.9-2.5-3.3-3.4c-1.4-0.9-2.9-1.6-4.6-2.2c-1.8-0.6-3.5-1.2-5.4-1.8c-1.8-0.6-3.6-1.2-5.4-1.9
			c-1.8-0.7-3.3-1.6-4.6-2.8c-1.4-1.1-2.5-2.5-3.3-4.2c-0.8-1.6-1.2-3.8-1.2-6.2c0-1.9,0.4-3.8,1.1-5.6c0.8-1.8,1.8-3.4,3.2-4.8
			s3.2-2.5,5.3-3.4c2.1-0.8,4.5-1.2,7.2-1.2c3,0,5.7,0.5,8.1,1.5c2.4,0.9,4.6,2.4,6.6,4.4L366.4,374.1z"/>
		<path fill="#999CAB" d="M379.3,403.2v0.8c0,3.1,0.4,5.8,1.1,8.1c0.7,2.4,1.7,4.3,3.1,5.9c1.3,1.6,2.9,2.8,4.8,3.6
			c1.9,0.8,3.9,1.2,6.2,1.2c2.1,0,3.8-0.2,5.4-0.7c1.5-0.5,2.8-0.9,3.8-1.5c1-0.6,1.8-1.1,2.5-1.5c0.6-0.5,1.1-0.7,1.3-0.7
			c0.4,0,0.6,0.1,0.8,0.4l1.1,1.3c-0.6,0.8-1.5,1.6-2.6,2.3c-1.1,0.7-2.3,1.4-3.6,1.8c-1.4,0.5-2.8,0.9-4.3,1.2
			c-1.5,0.3-3.1,0.5-4.6,0.5c-2.8,0-5.4-0.5-7.6-1.5c-2.3-1-4.3-2.4-5.9-4.2c-1.6-1.9-2.9-4.2-3.8-6.9c-0.9-2.7-1.4-5.8-1.4-9.3
			c0-2.9,0.4-5.6,1.2-8.1s2.1-4.6,3.6-6.4c1.6-1.8,3.5-3.2,5.8-4.2c2.3-1,4.9-1.5,7.8-1.5c2.3,0,4.5,0.4,6.4,1.2
			c2,0.8,3.7,1.9,5.1,3.5c1.5,1.5,2.6,3.4,3.4,5.6c0.8,2.2,1.2,4.8,1.2,7.6c0,0.6-0.1,1-0.2,1.2c-0.2,0.2-0.4,0.4-0.8,0.4
			L379.3,403.2L379.3,403.2z M406.6,400.6c0-2.2-0.3-4.2-0.9-5.9c-0.6-1.8-1.5-3.2-2.6-4.4c-1.1-1.2-2.5-2.1-4-2.8
			c-1.5-0.6-3.2-0.9-5.1-0.9c-2.1,0-4,0.4-5.7,1c-1.6,0.6-3.1,1.6-4.4,2.8c-1.2,1.2-2.2,2.7-2.9,4.5c-0.8,1.7-1.2,3.6-1.5,5.8h27.1
			V400.6z"/>
		<path fill="#999CAB" d="M446.3,389.8c-0.1,0.1-0.3,0.2-0.4,0.4c-0.1,0.1-0.3,0.1-0.5,0.1c-0.3,0-0.6-0.2-1.1-0.5
			c-0.5-0.4-1.1-0.8-1.9-1.2c-0.8-0.4-1.8-0.8-3-1.2c-1.2-0.4-2.6-0.5-4.4-0.5c-2.4,0-4.5,0.4-6.3,1.2c-1.8,0.8-3.4,2.1-4.6,3.6
			c-1.2,1.6-2.2,3.5-2.9,5.7c-0.6,2.2-0.9,4.7-0.9,7.5c0,2.9,0.4,5.4,1,7.6c0.6,2.2,1.6,4.1,2.9,5.6c1.2,1.5,2.7,2.7,4.5,3.5
			c1.8,0.8,3.7,1.2,5.8,1.2c2,0,3.6-0.2,4.9-0.7c1.4-0.5,2.4-1,3.3-1.5s1.5-1.1,2.1-1.5c0.5-0.5,0.9-0.7,1.2-0.7s0.6,0.1,0.8,0.4
			l1,1.3c-0.6,0.8-1.4,1.6-2.4,2.3c-0.9,0.7-2.1,1.4-3.2,1.9c-1.2,0.5-2.5,0.9-3.9,1.2s-2.9,0.4-4.4,0.4c-2.6,0-5-0.5-7.1-1.4
			c-2.2-0.9-4-2.3-5.5-4.1c-1.5-1.8-2.8-4-3.6-6.6c-0.9-2.6-1.3-5.6-1.3-8.9c0-3.1,0.4-6,1.2-8.6c0.8-2.6,2.1-4.8,3.6-6.6
			c1.6-1.9,3.5-3.3,5.8-4.4c2.3-1,4.9-1.5,7.9-1.5c2.6,0,5,0.4,7.1,1.3c2.1,0.8,3.9,2,5.4,3.5L446.3,389.8z"/>
		<path fill="#999CAB" d="M487.3,384.3v41h-2.2c-0.7,0-1.1-0.4-1.2-1.1l-0.4-6.1c-1.9,2.4-4.1,4.2-6.6,5.7c-2.5,1.4-5.2,2.1-8.3,2.1
			c-2.3,0-4.3-0.4-5.9-1.1c-1.7-0.7-3.1-1.8-4.2-3.1c-1.1-1.4-2-2.9-2.5-4.9c-0.6-1.9-0.9-4.1-0.9-6.4v-26.2h3.9v26.2
			c0,3.8,0.9,6.9,2.6,9.1c1.8,2.2,4.4,3.3,8,3.3c2.6,0,5.2-0.7,7.5-2.1c2.3-1.4,4.4-3.2,6.2-5.6v-30.8
			C483.4,384.3,487.3,384.3,487.3,384.3z"/>
		<path fill="#999CAB" d="M502.5,394.2c0.6-1.6,1.4-3.2,2.2-4.5c0.8-1.3,1.8-2.4,2.8-3.3s2.2-1.6,3.5-2.1c1.3-0.5,2.8-0.7,4.4-0.7
			c0.8,0,1.7,0.1,2.5,0.2c0.8,0.2,1.5,0.4,2.2,0.8l-0.4,2.7c-0.1,0.4-0.4,0.6-0.8,0.6c-0.4,0-0.8-0.1-1.5-0.3
			c-0.6-0.2-1.5-0.3-2.6-0.3c-1.6,0-3,0.2-4.2,0.7s-2.3,1.2-3.3,2.2c-1,0.9-1.8,2.2-2.5,3.6c-0.7,1.4-1.4,3.1-2,4.9v26.5h-3.9v-41
			h2.1c0.5,0,0.8,0.1,1,0.3c0.2,0.2,0.3,0.5,0.4,1L502.5,394.2z"/>
		<path fill="#999CAB" d="M524.9,403.2v0.8c0,3.1,0.4,5.8,1.1,8.1c0.7,2.4,1.7,4.3,3.1,5.9c1.3,1.6,2.9,2.8,4.8,3.6
			c1.9,0.8,3.9,1.2,6.2,1.2c2.1,0,3.8-0.2,5.4-0.7c1.5-0.5,2.8-0.9,3.8-1.5c1-0.6,1.8-1.1,2.5-1.5c0.6-0.5,1.1-0.7,1.3-0.7
			c0.4,0,0.6,0.1,0.8,0.4l1.1,1.3c-0.6,0.8-1.5,1.6-2.6,2.3s-2.3,1.4-3.6,1.8c-1.4,0.5-2.8,0.9-4.3,1.2c-1.5,0.3-3.1,0.5-4.6,0.5
			c-2.8,0-5.4-0.5-7.7-1.5c-2.3-1-4.3-2.4-5.9-4.2c-1.6-1.9-2.9-4.2-3.8-6.9c-0.9-2.7-1.4-5.8-1.4-9.3c0-2.9,0.4-5.6,1.2-8.1
			s2.1-4.6,3.6-6.4c1.6-1.8,3.5-3.2,5.8-4.2c2.3-1,4.9-1.5,7.8-1.5c2.3,0,4.5,0.4,6.4,1.2c2,0.8,3.7,1.9,5.1,3.5
			c1.5,1.5,2.6,3.4,3.4,5.6c0.8,2.2,1.2,4.8,1.2,7.6c0,0.6-0.1,1-0.2,1.2c-0.2,0.2-0.4,0.4-0.8,0.4L524.9,403.2L524.9,403.2z
			 M552.2,400.6c0-2.2-0.3-4.2-0.9-5.9c-0.6-1.8-1.5-3.2-2.6-4.4c-1.1-1.2-2.5-2.1-4-2.8s-3.2-0.9-5.1-0.9c-2.1,0-4,0.4-5.7,1
			c-1.6,0.6-3.1,1.6-4.4,2.8c-1.2,1.2-2.2,2.7-2.9,4.5c-0.8,1.7-1.2,3.6-1.5,5.8h27.1V400.6z"/>
	</g>
	<g>
		<path fill="#999CAB" d="M557.9,366.8h9.7v1.2h-4.1v10.7H562V368h-4.1V366.8z M582.9,366.8v11.8h-1.3v-9.1l0.1-0.9l-4.5,7.8
			c-0.1,0.2-0.3,0.4-0.5,0.4h-0.2c-0.2,0-0.4-0.1-0.5-0.4l-4.6-7.8l0.1,0.9v9.1h-1.2v-11.8h1.2c0.1,0,0.2,0,0.3,0.1
			c0.1,0,0.1,0.1,0.2,0.2l4.5,7.5c0.1,0.1,0.1,0.2,0.1,0.3c0.1,0.1,0.1,0.2,0.1,0.3c0.1-0.1,0.1-0.2,0.1-0.3
			c0.1-0.1,0.1-0.2,0.1-0.3l4.4-7.5c0.1-0.1,0.1-0.2,0.2-0.2s0.2-0.1,0.3-0.1H582.9z"/>
	</g>
</g>
</svg>
